<svg width="37" height="37" viewBox="0 0 37 37" fill="none" xmlns="http://www.w3.org/2000/svg">
<path d="M32.1284 7.10708C31.341 6.3193 30.4061 5.69437 29.3771 5.268C28.3481 4.84164 27.2452 4.62218 26.1314 4.62218C25.0175 4.62218 23.9146 4.84164 22.8856 5.268C21.8566 5.69437 20.9217 6.3193 20.1343 7.10708L18.5001 8.74125L16.8659 7.10708C15.2754 5.51656 13.1182 4.62301 10.8689 4.62301C8.61951 4.62301 6.46229 5.51656 4.87177 7.10708C3.28124 8.69761 2.3877 10.8548 2.3877 13.1042C2.3877 15.3535 3.28124 17.5107 4.87177 19.1013L18.5001 32.7296L32.1284 19.1013C32.9162 18.3138 33.5411 17.3789 33.9675 16.3499C34.3939 15.3209 34.6133 14.218 34.6133 13.1042C34.6133 11.9903 34.3939 10.8874 33.9675 9.85841C33.5411 8.82941 32.9162 7.8945 32.1284 7.10708Z" stroke="white" stroke-width="2" stroke-linecap="round" stroke-linejoin="round"/>
</svg>
